<svg width="18" height="20" viewBox="0 0 18 20" fill="none" xmlns="http://www.w3.org/2000/svg">
<path d="M14.8125 13.5625C14.1445 13.5625 13.5281 13.7969 13.0453 14.1883L8.18906 10.675C8.27038 10.2287 8.27038 9.77133 8.18906 9.325L13.0453 5.81172C13.5281 6.20312 14.1445 6.4375 14.8125 6.4375C16.3641 6.4375 17.625 5.17656 17.625 3.625C17.625 2.07344 16.3641 0.8125 14.8125 0.8125C13.2609 0.8125 12 2.07344 12 3.625C12 3.89688 12.0375 4.15703 12.1102 4.40547L7.49766 7.74531C6.81328 6.83828 5.72578 6.25 4.5 6.25C2.42812 6.25 0.75 7.92812 0.75 10C0.75 12.0719 2.42812 13.75 4.5 13.75C5.72578 13.75 6.81328 13.1617 7.49766 12.2547L12.1102 15.5945C12.0375 15.843 12 16.1055 12 16.375C12 17.9266 13.2609 19.1875 14.8125 19.1875C16.3641 19.1875 17.625 17.9266 17.625 16.375C17.625 14.8234 16.3641 13.5625 14.8125 13.5625ZM14.8125 2.40625C15.4852 2.40625 16.0312 2.95234 16.0312 3.625C16.0312 4.29766 15.4852 4.84375 14.8125 4.84375C14.1398 4.84375 13.5938 4.29766 13.5938 3.625C13.5938 2.95234 14.1398 2.40625 14.8125 2.40625ZM4.5 12.0625C3.36328 12.0625 2.4375 11.1367 2.4375 10C2.4375 8.86328 3.36328 7.9375 4.5 7.9375C5.63672 7.9375 6.5625 8.86328 6.5625 10C6.5625 11.1367 5.63672 12.0625 4.5 12.0625ZM14.8125 17.5938C14.1398 17.5938 13.5938 17.0477 13.5938 16.375C13.5938 15.7023 14.1398 15.1562 14.8125 15.1562C15.4852 15.1562 16.0312 15.7023 16.0312 16.375C16.0312 17.0477 15.4852 17.5938 14.8125 17.5938Z" fill="#8C8C8C"/>
</svg>
